<svg width="86" height="37" viewBox="0 0 86 37" fill="none" xmlns="http://www.w3.org/2000/svg">
<path d="M54.6667 1H71C72.2377 1 73.4247 1.36196 74.2998 2.00626C75.175 2.65056 75.6667 3.52442 75.6667 4.4356V31.9204C75.6667 32.8315 75.175 33.7054 74.2998 34.3497C73.4247 34.994 72.2377 35.356 71 35.356H54.6667M22 1H5.66667C4.42899 1 3.242 1.36196 2.36683 2.00626C1.49167 2.65056 1 3.52442 1 4.4356V31.9204C1 32.8315 1.49167 33.7054 2.36683 34.3497C3.242 34.994 4.42899 35.356 5.66667 35.356H22M85 14.7424V21.6136M38.338 1L26.6667 18.178H50.0093L38.3333 35.356" stroke="white" stroke-width="2" stroke-linecap="round" stroke-linejoin="round"/>
</svg>
