<svg width="144" height="144" viewBox="0 0 144 144" fill="none" xmlns="http://www.w3.org/2000/svg">
<path d="M102 108C95.34 108 90 113.34 90 120C90 123.183 91.2643 126.235 93.5147 128.485C95.7652 130.736 98.8174 132 102 132C105.183 132 108.235 130.736 110.485 128.485C112.736 126.235 114 123.183 114 120C114 116.817 112.736 113.765 110.485 111.515C108.235 109.264 105.183 108 102 108ZM6 12V24H18L39.6 69.54L31.44 84.24C30.54 85.92 30 87.9 30 90C30 93.1826 31.2643 96.2348 33.5147 98.4853C35.7652 100.736 38.8174 102 42 102H114V90H44.52C44.1222 90 43.7406 89.842 43.4593 89.5607C43.178 89.2794 43.02 88.8978 43.02 88.5C43.02 88.2 43.08 87.96 43.2 87.78L48.6 78H93.3C97.8 78 101.76 75.48 103.8 71.82L125.28 33C125.7 32.04 126 31.02 126 30C126 28.4087 125.368 26.8826 124.243 25.7574C123.117 24.6321 121.591 24 120 24H31.26L25.62 12M42 108C35.34 108 30 113.34 30 120C30 123.183 31.2643 126.235 33.5147 128.485C35.7652 130.736 38.8174 132 42 132C45.1826 132 48.2348 130.736 50.4853 128.485C52.7357 126.235 54 123.183 54 120C54 116.817 52.7357 113.765 50.4853 111.515C48.2348 109.264 45.1826 108 42 108Z" fill="#FD6923"/>
</svg>
