<svg width="144" height="144" viewBox="0 0 144 144" fill="none" xmlns="http://www.w3.org/2000/svg">
<path d="M102 108C105.183 108 108.235 109.264 110.485 111.515C112.736 113.765 114 116.817 114 120C114 123.183 112.736 126.235 110.485 128.485C108.235 130.736 105.183 132 102 132C98.8174 132 95.7652 130.736 93.5147 128.485C91.2643 126.235 90 123.183 90 120C90 113.34 95.34 108 102 108ZM6 12H25.62L31.26 24H120C121.591 24 123.117 24.6321 124.243 25.7574C125.368 26.8826 126 28.4087 126 30C126 31.02 125.7 32.04 125.28 33L103.8 71.82C101.76 75.48 97.8 78 93.3 78H48.6L43.2 87.78L43.02 88.5C43.02 88.8978 43.178 89.2794 43.4593 89.5607C43.7406 89.842 44.1222 90 44.52 90H114V102H42C38.8174 102 35.7652 100.736 33.5147 98.4853C31.2643 96.2348 30 93.1826 30 90C30 87.9 30.54 85.92 31.44 84.24L39.6 69.54L18 24H6V12ZM42 108C45.1826 108 48.2348 109.264 50.4853 111.515C52.7357 113.765 54 116.817 54 120C54 123.183 52.7357 126.235 50.4853 128.485C48.2348 130.736 45.1826 132 42 132C38.8174 132 35.7652 130.736 33.5147 128.485C31.2643 126.235 30 123.183 30 120C30 113.34 35.34 108 42 108ZM96 66L112.68 36H36.84L51 66H96Z" fill="#FD6923"/>
</svg>
