<svg width="85" height="84" viewBox="0 0 85 84" fill="none" xmlns="http://www.w3.org/2000/svg">
<path d="M42.5001 27.5624C39.6107 27.5624 36.7861 28.4092 34.3836 29.9956C31.9811 31.582 30.1086 33.8368 29.0028 36.475C27.8971 39.1131 27.6078 42.016 28.1715 44.8166C28.7352 47.6172 30.1266 50.1897 32.1697 52.2088C34.2129 54.2279 36.816 55.603 39.65 56.16C42.4839 56.7171 45.4214 56.4312 48.0909 55.3385C50.7604 54.2457 53.0421 52.3952 54.6474 50.021C56.2527 47.6468 57.1095 44.8554 57.1095 41.9999C57.1051 38.1722 55.5645 34.5025 52.8257 31.7959C50.0868 29.0893 46.3734 27.5668 42.5001 27.5624ZM42.5001 53.8124C40.136 53.8124 37.825 53.1197 35.8593 51.8217C33.8937 50.5237 32.3616 48.6788 31.4569 46.5204C30.5522 44.3619 30.3155 41.9868 30.7767 39.6954C31.2379 37.404 32.3763 35.2993 34.048 33.6472C35.7197 31.9952 37.8495 30.8702 40.1682 30.4144C42.4869 29.9586 44.8903 30.1926 47.0744 31.0866C49.2585 31.9807 51.1254 33.4947 52.4388 35.4373C53.7522 37.3798 54.4533 39.6637 54.4533 41.9999C54.4533 45.1328 53.1939 48.1374 50.9523 50.3526C48.7106 52.5679 45.6703 53.8124 42.5001 53.8124ZM70.3675 43.1517C70.3963 42.3839 70.3963 41.6182 70.3675 40.8548L75.6236 34.3612C75.754 34.2009 75.8445 34.0126 75.8878 33.8114C75.931 33.6102 75.9258 33.4018 75.8726 33.2029C75.0861 30.2964 73.9126 27.5059 72.383 24.9046C72.2805 24.7258 72.137 24.5733 71.964 24.4593C71.791 24.3453 71.5933 24.2731 71.3869 24.2484L63.023 23.3296C62.4969 22.7671 61.9486 22.2253 61.3794 21.7054L60.4531 13.4531C60.4281 13.2491 60.355 13.0537 60.2396 12.8827C60.1243 12.7118 59.9699 12.5699 59.789 12.4687C57.16 10.9606 54.3411 9.80214 51.4052 9.02338C51.2043 8.97032 50.9935 8.96465 50.7899 9.00683C50.5863 9.049 50.3956 9.13784 50.2331 9.26619L43.6656 14.4604C42.8886 14.4298 42.1139 14.4298 41.3414 14.4604L34.7638 9.26619C34.6016 9.13728 34.411 9.04785 34.2075 9.0051C34.0039 8.96235 33.793 8.96749 33.5917 9.0201C30.6529 9.79789 27.8315 10.9575 25.2013 12.4687C25.0204 12.5699 24.866 12.7118 24.7507 12.8827C24.6353 13.0537 24.5622 13.2491 24.5372 13.4531L23.6076 21.7185C23.0384 22.2384 22.4901 22.7803 21.964 23.3428L13.6134 24.2582C13.407 24.2829 13.2093 24.3552 13.0363 24.4691C12.8633 24.5831 12.7198 24.7357 12.6173 24.9145C11.0913 27.5125 9.91902 30.2983 9.13099 33.1996C9.0773 33.3982 9.07157 33.6065 9.11424 33.8077C9.15692 34.0089 9.24682 34.1973 9.3767 34.3579L14.6328 40.8482C14.6018 41.616 14.6018 42.3817 14.6328 43.1451L9.3767 49.6453C9.24625 49.8055 9.15575 49.9939 9.11249 50.1951C9.06924 50.3963 9.07444 50.6047 9.12767 50.8035C9.91472 53.7078 11.0882 56.496 12.6173 59.0953C12.7198 59.2741 12.8633 59.4266 13.0363 59.5406C13.2093 59.6546 13.407 59.7268 13.6134 59.7515L21.9773 60.6703C22.5019 61.2313 23.0531 61.776 23.6208 62.2945L24.5505 70.5632C24.5755 70.7672 24.6486 70.9626 24.764 71.1336C24.8793 71.3045 25.0337 71.4464 25.2146 71.5476C27.8474 73.0519 30.6697 74.206 33.6083 74.9798C33.8093 75.0328 34.0201 75.0385 34.2236 74.9963C34.4272 74.9542 34.6179 74.8653 34.7804 74.737L41.348 69.5428C42.1249 69.5712 42.8997 69.5712 43.6722 69.5428L50.2431 74.737C50.4786 74.9237 50.7713 75.0255 51.0732 75.0257C51.1852 75.0254 51.2968 75.0111 51.4052 74.9831C54.3454 74.2045 57.1679 73.0438 59.799 71.5312C59.9799 71.4299 60.1343 71.2881 60.2496 71.1171C60.3649 70.9462 60.438 70.7508 60.463 70.5468L61.3927 62.2814C61.9605 61.7629 62.5117 61.2182 63.0363 60.6571L71.4035 59.7384C71.6099 59.7137 71.8076 59.6414 71.9806 59.5275C72.1536 59.4135 72.2971 59.2609 72.3996 59.0821C73.9218 56.4803 75.0896 53.6912 75.8726 50.7871C75.9263 50.5885 75.932 50.3803 75.8894 50.1791C75.8467 49.9779 75.7568 49.7894 75.6269 49.6289L70.3675 43.1517ZM70.424 57.2053L62.2328 58.1043C61.906 58.1402 61.6043 58.2945 61.3861 58.5374C60.7128 59.2883 59.9943 59.9984 59.2345 60.6637C58.9887 60.8794 58.8325 61.1775 58.7962 61.5004L57.8865 69.592C55.8203 70.7205 53.633 71.6175 51.3654 72.2662L44.9306 67.177C44.6947 66.9915 44.402 66.8908 44.1005 66.8915H44.0208C43.008 66.9536 41.9923 66.9536 40.9794 66.8915C40.6509 66.872 40.3266 66.9737 40.0697 67.177L33.6382 72.2629C31.3695 71.617 29.1811 70.7222 27.1138 69.5953L26.204 61.5004C26.1678 61.1775 26.0116 60.8794 25.7658 60.6637C25.0059 59.9984 24.2875 59.2883 23.6142 58.5374C23.3959 58.2945 23.0943 58.1402 22.7675 58.1043L14.5796 57.2053C13.4377 55.1634 12.53 53.0019 11.8736 50.7609L17.0234 44.4018C17.2291 44.1479 17.332 43.8275 17.3122 43.5028C17.2527 42.5017 17.2527 41.4981 17.3122 40.4971C17.332 40.1724 17.2291 39.852 17.0234 39.5981L11.8769 33.2423C12.5305 31.0003 13.4359 28.8376 14.5763 26.7946L22.7675 25.8956C23.0943 25.8597 23.3959 25.7054 23.6142 25.4624C24.2875 24.7116 25.0059 24.0015 25.7658 23.3362C26.0116 23.1205 26.1678 22.8224 26.204 22.4995L27.1138 14.4079C29.18 13.2794 31.3672 12.3824 33.6349 11.7337L40.0697 16.8229C40.3266 17.0262 40.6509 17.1279 40.9794 17.1084C41.9923 17.0463 43.008 17.0463 44.0208 17.1084C44.3494 17.1279 44.6736 17.0262 44.9306 16.8229L51.3621 11.737C53.6308 12.3829 55.8192 13.2777 57.8865 14.4046L58.7962 22.4995C58.8325 22.8224 58.9887 23.1205 59.2345 23.3362C59.9943 24.0015 60.7128 24.7116 61.3861 25.4624C61.6043 25.7054 61.906 25.8597 62.2328 25.8956L70.4206 26.7946C71.5626 28.8365 72.4702 30.998 73.1267 33.239L67.9769 39.5981C67.7712 39.852 67.6683 40.1724 67.688 40.4971C67.7476 41.4981 67.7476 42.5017 67.688 43.5028C67.6683 43.8275 67.7712 44.1479 67.9769 44.4018L73.1234 50.7576C72.4698 52.9996 71.5644 55.1623 70.424 57.2053Z" fill="white"/>
</svg>
