<svg width="85" height="84" viewBox="0 0 85 84" fill="none" xmlns="http://www.w3.org/2000/svg">
<g clip-path="url(#clip0_540_1057)">
<mask id="mask0_540_1057" style="mask-type:luminance" maskUnits="userSpaceOnUse" x="9" y="14" width="69" height="54">
<path d="M17.7083 66.5C16.6458 66.5 15.6188 65.975 15.0875 65.065C12.2542 60.375 10.625 54.88 10.625 49C10.625 31.605 24.8979 17.5 42.5 17.5C60.1021 17.5 74.375 31.605 74.375 49C74.375 54.88 72.7458 60.375 69.9125 65.065C69.3813 65.975 68.3542 66.5 67.2917 66.5H17.7083Z" stroke="white" stroke-width="2" stroke-linecap="round" stroke-linejoin="round"/>
<path d="M52.5174 58.8995C46.9829 64.369 38.0173 64.369 32.4827 58.8995C26.9482 53.43 26.9482 44.57 32.4827 39.1005C38.0173 33.631 77.5608 14.3518 77.5608 14.3518C77.5608 14.3518 58.052 53.43 52.5174 58.8995Z" fill="black"/>
<path d="M47.5086 53.9497C44.7539 56.6721 40.2461 56.6721 37.4913 53.9497C34.7365 51.2274 34.7365 46.7726 37.4913 44.0503C40.2461 41.3279 67.5433 24.2513 67.5433 24.2513C67.5433 24.2513 50.2634 51.2274 47.5086 53.9497Z" fill="white"/>
</mask>
<g mask="url(#mask0_540_1057)">
<path d="M85 0H0V84H85V0Z" fill="white"/>
</g>
</g>
<defs>
<clipPath id="clip0_540_1057">
<rect width="85" height="84" fill="white"/>
</clipPath>
</defs>
</svg>
