<svg width="118" height="118" viewBox="0 0 118 118" fill="none" xmlns="http://www.w3.org/2000/svg">
<path d="M34.5003 0.666748H83.5003C102.167 0.666748 117.334 15.8334 117.334 34.5001V83.5001C117.334 92.4732 113.769 101.079 107.424 107.424C101.079 113.769 92.4735 117.333 83.5003 117.333H34.5003C15.8337 117.333 0.666992 102.167 0.666992 83.5001V34.5001C0.666992 25.5269 4.23157 16.9213 10.5765 10.5763C16.9215 4.23132 25.5272 0.666748 34.5003 0.666748ZM33.3337 12.3334C27.7641 12.3334 22.4227 14.5459 18.4844 18.4842C14.5462 22.4224 12.3337 27.7639 12.3337 33.3334V84.6667C12.3337 96.2751 21.7253 105.667 33.3337 105.667H84.667C90.2365 105.667 95.578 103.454 99.5162 99.516C103.454 95.5777 105.667 90.2363 105.667 84.6667V33.3334C105.667 21.7251 96.2753 12.3334 84.667 12.3334H33.3337ZM89.6253 21.0834C91.5592 21.0834 93.4139 21.8516 94.7813 23.2191C96.1488 24.5865 96.917 26.4412 96.917 28.3751C96.917 30.309 96.1488 32.1636 94.7813 33.5311C93.4139 34.8985 91.5592 35.6667 89.6253 35.6667C87.6915 35.6667 85.8368 34.8985 84.4693 33.5311C83.1019 32.1636 82.3337 30.309 82.3337 28.3751C82.3337 26.4412 83.1019 24.5865 84.4693 23.2191C85.8368 21.8516 87.6915 21.0834 89.6253 21.0834ZM59.0003 29.8334C66.7358 29.8334 74.1545 32.9063 79.6243 38.3761C85.0941 43.8459 88.167 51.2646 88.167 59.0001C88.167 66.7356 85.0941 74.1542 79.6243 79.624C74.1545 85.0938 66.7358 88.1667 59.0003 88.1667C51.2648 88.1667 43.8462 85.0938 38.3764 79.624C32.9066 74.1542 29.8337 66.7356 29.8337 59.0001C29.8337 51.2646 32.9066 43.8459 38.3764 38.3761C43.8462 32.9063 51.2648 29.8334 59.0003 29.8334ZM59.0003 41.5001C54.359 41.5001 49.9078 43.3438 46.626 46.6257C43.3441 49.9076 41.5003 54.3588 41.5003 59.0001C41.5003 63.6414 43.3441 68.0926 46.626 71.3744C49.9078 74.6563 54.359 76.5001 59.0003 76.5001C63.6416 76.5001 68.0928 74.6563 71.3747 71.3744C74.6566 68.0926 76.5003 63.6414 76.5003 59.0001C76.5003 54.3588 74.6566 49.9076 71.3747 46.6257C68.0928 43.3438 63.6416 41.5001 59.0003 41.5001Z" fill="#FD6923"/>
</svg>
