<svg width="110" height="110" viewBox="0 0 110 110" fill="none" xmlns="http://www.w3.org/2000/svg">
<path d="M100.896 0.3125H9.10352C4.25 0.3125 0.3125 4.25 0.3125 9.10352V100.896C0.3125 105.75 4.25 109.688 9.10352 109.688H100.896C105.75 109.688 109.688 105.75 109.688 100.896V9.10352C109.688 4.25 105.75 0.3125 100.896 0.3125ZM100.896 100.938C39.6738 100.924 9.0625 100.91 9.0625 100.896C9.07617 39.6738 9.08984 9.0625 9.10352 9.0625C70.3262 9.07617 100.938 9.08984 100.938 9.10352C100.924 70.3262 100.91 100.938 100.896 100.938ZM16.5273 41.3145H32.7559V93.5137H16.5273V41.3145ZM24.6484 34.1777C29.8301 34.1777 34.0547 29.9668 34.0547 24.7715C34.0547 23.5362 33.8114 22.3131 33.3387 21.1719C32.866 20.0306 32.1731 18.9937 31.2997 18.1203C30.4262 17.2468 29.3893 16.554 28.2481 16.0812C27.1068 15.6085 25.8837 15.3652 24.6484 15.3652C23.4132 15.3652 22.19 15.6085 21.0488 16.0812C19.9076 16.554 18.8707 17.2468 17.9972 18.1203C17.1238 18.9937 16.4309 20.0306 15.9582 21.1719C15.4855 22.3131 15.2422 23.5362 15.2422 24.7715C15.2285 29.9668 19.4395 34.1777 24.6484 34.1777ZM59.1426 67.6875C59.1426 60.8789 60.4414 54.2891 68.877 54.2891C77.1895 54.2891 77.3125 62.0684 77.3125 68.125V93.5137H93.5273V64.8848C93.5273 50.8301 90.4922 40.0156 74.0723 40.0156C66.1836 40.0156 60.8926 44.3496 58.7188 48.4512H58.5V41.3145H42.9277V93.5137H59.1426V67.6875Z" fill="#FD6923"/>
</svg>
