<svg width="112" height="100" viewBox="0 0 112 100" fill="none" xmlns="http://www.w3.org/2000/svg">
<path fill-rule="evenodd" clip-rule="evenodd" d="M86.932 17.7692C84.8728 14.8058 79.3662 10.6408 70.447 12.4375C65.2437 13.4817 62.1345 16.0542 60.157 19.4492C58.0512 23.0658 57.0304 27.9833 57.0304 33.7058C57.0304 35.2529 56.4158 36.7367 55.3218 37.8306C54.2278 38.9246 52.7441 39.5392 51.197 39.5392C37.3954 39.5392 24.2587 35.4383 13.2045 24.3492C12.369 28.8483 12.0403 33.4268 12.2245 37.9992C12.5337 44.3342 14.0445 50.6867 17.632 56.1292C21.1612 61.4783 26.9654 66.3783 36.672 69.4583C37.6232 69.7601 38.481 70.3007 39.1635 71.0286C39.8461 71.7565 40.3304 72.6473 40.5704 73.6159C40.8103 74.5845 40.7978 75.5984 40.534 76.5607C40.2702 77.5231 39.764 78.4017 39.0637 79.1125C35.9554 82.3026 32.4315 85.0593 28.587 87.3083C34.7704 87.95 40.732 87.9967 46.262 87.495C57.462 86.48 66.3812 83.2775 71.9579 78.745C83.7004 69.225 89.9828 55.0267 88.8162 31.2383C88.6178 27.33 92.392 23.1125 94.212 19.91C91.4645 20.4233 88.7112 20.33 86.932 17.7692ZM9.79785 6.07335C10.854 5.9506 11.9236 6.11886 12.8911 6.55992C13.8585 7.00098 14.687 7.69807 15.287 8.57584C23.897 21.17 34.2337 26.4083 45.7079 27.5983C46.2679 22.6925 47.592 17.845 50.0829 13.575C53.7345 7.31001 59.6729 2.70168 68.1545 0.998344C79.8795 -1.35832 88.8045 2.88834 93.9787 8.08584L104.432 6.13168C105.526 5.92672 106.656 6.03895 107.688 6.45512C108.72 6.8713 109.611 7.57406 110.257 8.48045C110.903 9.38685 111.276 10.4591 111.332 11.5705C111.388 12.682 111.126 13.7864 110.575 14.7533L100.541 32.3817C101.457 57.8208 94.387 75.5775 79.3137 87.81C71.322 94.2967 59.877 97.9775 47.3179 99.115C34.6595 100.258 20.3504 98.8758 6.12869 94.7225C4.91356 94.3681 3.84669 93.628 3.08909 92.614C2.33149 91.6 1.92426 90.3671 1.92887 89.1013C1.93348 87.8355 2.34967 86.6056 3.11464 85.5972C3.87961 84.5887 4.95184 83.8564 6.16952 83.5108C13.3212 81.475 18.7695 79.7192 23.687 76.645C16.6929 72.935 11.542 68.0817 7.89619 62.5517C2.83286 54.8633 0.954522 46.2883 0.581189 38.5592C0.207855 30.83 1.32202 23.6667 2.50036 18.5042C3.17119 15.5583 3.95286 12.6067 5.03202 9.78334C5.41268 8.78812 6.05867 7.91617 6.89987 7.26213C7.74107 6.60809 8.73951 6.19696 9.79785 6.07335Z" fill="#FD6923"/>
</svg>
