<svg width="118" height="94" viewBox="0 0 118 94" fill="none" xmlns="http://www.w3.org/2000/svg">
<path d="M59.0003 0.333252C63.9878 0.333252 69.1037 0.461586 74.062 0.671586L79.9187 0.951585L85.5245 1.28409L90.7745 1.63992L95.5695 2.01325C100.774 2.40928 105.672 4.62912 109.4 8.28176C113.128 11.9344 115.448 16.7856 115.951 21.9808L116.184 24.4599L116.622 29.7682C117.03 35.2691 117.334 41.2657 117.334 46.9999C117.334 52.7341 117.03 58.7308 116.622 64.2316L116.184 69.5399L115.951 72.0191C115.448 77.2152 113.127 82.0671 109.398 85.7198C105.668 89.3726 100.769 91.5919 95.5637 91.9866L90.7803 92.3541L85.5303 92.7157L79.9187 93.0482L74.062 93.3282C69.0443 93.5456 64.0227 93.6584 59.0003 93.6666C53.978 93.6584 48.9563 93.5456 43.9387 93.3282L38.082 93.0482L32.4762 92.7157L27.2262 92.3541L22.4312 91.9866C17.2267 91.5905 12.329 89.3707 8.60058 85.7181C4.87217 82.0654 2.55227 77.2143 2.04949 72.0191L1.81616 69.5399L1.37866 64.2316C0.93435 58.4981 0.696973 52.7505 0.666992 46.9999C0.666992 41.2657 0.970325 35.2691 1.37866 29.7682L1.81616 24.4599L2.04949 21.9808C2.55208 16.7865 4.87114 11.9361 8.59836 8.28353C12.3256 4.63101 17.2219 2.4106 22.4253 2.01325L27.2145 1.63992L32.4645 1.28409L38.0762 0.951585L43.9328 0.671586C48.9524 0.454161 53.976 0.341358 59.0003 0.333252ZM59.0003 11.9999C54.1878 11.9999 49.2353 12.1283 44.417 12.3266L38.712 12.6008L33.2345 12.9216L28.0895 13.2716L23.3762 13.6391C20.8981 13.8126 18.5618 14.859 16.7825 16.5924C15.0032 18.3258 13.896 20.6339 13.6578 23.1066C12.9753 30.1591 12.3337 38.9383 12.3337 46.9999C12.3337 55.0616 12.9753 63.8408 13.6578 70.8933C14.1537 75.9799 18.1903 79.9349 23.3762 80.3607L28.0895 80.7224L33.2345 81.0724L38.712 81.3991L44.417 81.6732C49.2353 81.8716 54.1878 81.9999 59.0003 81.9999C63.8128 81.9999 68.7653 81.8716 73.5837 81.6732L79.2887 81.3991L84.7662 81.0782L89.9112 80.7282L94.6245 80.3607C97.1025 80.1873 99.4388 79.1408 101.218 77.4074C102.997 75.674 104.105 73.3659 104.343 70.8933C105.025 63.8408 105.667 55.0616 105.667 46.9999C105.667 38.9383 105.025 30.1591 104.343 23.1066C104.105 20.6339 102.997 18.3258 101.218 16.5924C99.4388 14.859 97.1025 13.8126 94.6245 13.6391L89.9112 13.2774L84.7662 12.9274L79.2887 12.6008L73.5837 12.3266C68.7253 12.1181 63.8632 12.0091 59.0003 11.9999ZM47.3337 32.8541C47.3333 32.284 47.4722 31.7224 47.7383 31.2181C48.0044 30.7139 48.3897 30.2824 48.8606 29.961C49.3315 29.6395 49.8737 29.438 50.4403 29.374C51.0068 29.3099 51.5804 29.3852 52.1112 29.5932L52.5837 29.8266L77.0837 43.9666C77.5715 44.2481 77.9843 44.6432 78.2868 45.1183C78.5893 45.5934 78.7727 46.1345 78.8214 46.6957C78.87 47.2569 78.7826 47.8215 78.5664 48.3416C78.3501 48.8617 78.0116 49.322 77.5795 49.6832L77.0837 50.0333L52.5837 64.1791C52.0899 64.465 51.5338 64.6259 50.9637 64.6477C50.3936 64.6695 49.8268 64.5517 49.3127 64.3044C48.7985 64.0571 48.3526 63.6878 48.0138 63.2288C47.675 62.7698 47.4535 62.2349 47.3687 61.6708L47.3337 61.1457V32.8541Z" fill="#FD6923"/>
</svg>
